<svg width="596" height="1440" viewBox="0 0 596 1440" fill="none" xmlns="http://www.w3.org/2000/svg">
<g clip-path="url(#clip0_1_329)">
<rect x="596" width="1440" height="600" transform="rotate(90 596 0)" fill="#547980"/>
<rect x="596" width="1440" height="600" transform="rotate(90 596 0)" fill="url(#paint0_linear_1_329)"/>
<g style="mix-blend-mode:darken" opacity="0.2">
<mask id="mask0_1_329" style="mask-type:alpha" maskUnits="userSpaceOnUse" x="296" y="-220" width="300" height="300">
<rect x="595.231" y="-219.231" width="298.462" height="298.462" transform="rotate(90 595.231 -219.231)" fill="#C4C4C4" stroke="#547980" stroke-width="1.53846"/>
</mask>
<g mask="url(#mask0_1_329)">
<rect x="446.121" y="256.418" width="329.077" height="329.077" transform="rotate(-135 446.121 256.418)" stroke="#547980" stroke-width="21.3846"/>
<rect x="446.121" y="256.418" width="286.308" height="286.308" transform="rotate(-135 446.121 256.418)" stroke="#547980" stroke-width="21.3846"/>
<rect x="446.121" y="256.418" width="243.538" height="243.538" transform="rotate(-135 446.121 256.418)" stroke="#547980" stroke-width="21.3846"/>
<rect x="446.121" y="256.418" width="200.769" height="200.769" transform="rotate(-135 446.121 256.418)" stroke="#547980" stroke-width="21.3846"/>
<rect x="446.121" y="256.418" width="158" height="158" transform="rotate(-135 446.121 256.418)" stroke="#547980" stroke-width="21.3846"/>
</g>
<mask id="mask1_1_329" style="mask-type:alpha" maskUnits="userSpaceOnUse" x="296" y="80" width="300" height="300">
<rect x="595.231" y="80.7692" width="298.462" height="298.462" transform="rotate(90 595.231 80.7692)" fill="#C4C4C4" stroke="#547980" stroke-width="1.53846"/>
</mask>
<g mask="url(#mask1_1_329)">
<rect x="446.12" y="556.417" width="329.077" height="329.077" transform="rotate(-135 446.12 556.417)" stroke="#547980" stroke-width="21.3846"/>
<rect x="446.12" y="556.417" width="286.308" height="286.308" transform="rotate(-135 446.12 556.417)" stroke="#547980" stroke-width="21.3846"/>
<rect x="446.12" y="556.417" width="243.538" height="243.538" transform="rotate(-135 446.12 556.417)" stroke="#547980" stroke-width="21.3846"/>
<rect x="446.12" y="556.417" width="200.769" height="200.769" transform="rotate(-135 446.12 556.417)" stroke="#547980" stroke-width="21.3846"/>
<rect x="446.12" y="556.417" width="158" height="158" transform="rotate(-135 446.12 556.417)" stroke="#547980" stroke-width="21.3846"/>
<rect x="666.87" y="-202.206" width="427.12" height="446.035" transform="rotate(90 666.87 -202.206)" fill="#45ADA8" stroke="#547980" stroke-width="1.0288"/>
<line x1="667.436" y1="89.2236" x2="220.321" y2="89.2236" stroke="#547980" stroke-width="21.3846"/>
<line x1="667.436" y1="132.231" x2="220.321" y2="132.231" stroke="#547980" stroke-width="21.3846"/>
<line x1="667.436" y1="173.768" x2="220.321" y2="173.768" stroke="#547980" stroke-width="21.3846"/>
<line x1="667.436" y1="215.309" x2="220.321" y2="215.309" stroke="#547980" stroke-width="21.3846"/>
</g>
<mask id="mask2_1_329" style="mask-type:alpha" maskUnits="userSpaceOnUse" x="296" y="380" width="300" height="300">
<rect x="595.231" y="380.769" width="298.462" height="298.462" transform="rotate(90 595.231 380.769)" fill="#C4C4C4" stroke="#547980" stroke-width="1.53846"/>
</mask>
<g mask="url(#mask2_1_329)">
<rect x="446.12" y="856.417" width="329.077" height="329.077" transform="rotate(-135 446.12 856.417)" stroke="#547980" stroke-width="21.3846"/>
<rect x="446.12" y="856.417" width="286.308" height="286.308" transform="rotate(-135 446.12 856.417)" stroke="#547980" stroke-width="21.3846"/>
<rect x="446.12" y="856.417" width="243.538" height="243.538" transform="rotate(-135 446.12 856.417)" stroke="#547980" stroke-width="21.3846"/>
<rect x="446.12" y="856.417" width="200.769" height="200.769" transform="rotate(-135 446.12 856.417)" stroke="#547980" stroke-width="21.3846"/>
<rect x="446.12" y="856.417" width="158" height="158" transform="rotate(-135 446.12 856.417)" stroke="#547980" stroke-width="21.3846"/>
<rect x="666.87" y="97.7935" width="427.12" height="446.035" transform="rotate(90 666.87 97.7935)" fill="#45ADA8" stroke="#547980" stroke-width="1.0288"/>
<line x1="667.436" y1="389.224" x2="220.321" y2="389.224" stroke="#547980" stroke-width="21.3846"/>
<line x1="667.436" y1="432.231" x2="220.321" y2="432.231" stroke="#547980" stroke-width="21.3846"/>
<line x1="667.436" y1="473.768" x2="220.321" y2="473.768" stroke="#547980" stroke-width="21.3846"/>
<line x1="667.436" y1="515.309" x2="220.321" y2="515.309" stroke="#547980" stroke-width="21.3846"/>
</g>
<mask id="mask3_1_329" style="mask-type:alpha" maskUnits="userSpaceOnUse" x="296" y="680" width="300" height="300">
<rect x="595.231" y="680.769" width="298.462" height="298.462" transform="rotate(90 595.231 680.769)" fill="#C4C4C4" stroke="#547980" stroke-width="1.53846"/>
</mask>
<g mask="url(#mask3_1_329)">
<rect x="446.12" y="1156.42" width="329.077" height="329.077" transform="rotate(-135 446.12 1156.42)" stroke="#547980" stroke-width="21.3846"/>
<rect x="446.12" y="1156.42" width="286.308" height="286.308" transform="rotate(-135 446.12 1156.42)" stroke="#547980" stroke-width="21.3846"/>
<rect x="446.12" y="1156.42" width="243.538" height="243.538" transform="rotate(-135 446.12 1156.42)" stroke="#547980" stroke-width="21.3846"/>
<rect x="446.12" y="1156.42" width="200.769" height="200.769" transform="rotate(-135 446.12 1156.42)" stroke="#547980" stroke-width="21.3846"/>
<rect x="446.12" y="1156.42" width="158" height="158" transform="rotate(-135 446.12 1156.42)" stroke="#547980" stroke-width="21.3846"/>
<rect x="666.87" y="397.795" width="427.12" height="446.035" transform="rotate(90 666.87 397.795)" fill="#45ADA8" stroke="#547980" stroke-width="1.0288"/>
<line x1="667.436" y1="689.225" x2="220.321" y2="689.224" stroke="#547980" stroke-width="21.3846"/>
<line x1="667.436" y1="732.232" x2="220.321" y2="732.232" stroke="#547980" stroke-width="21.3846"/>
<line x1="667.436" y1="773.77" x2="220.321" y2="773.77" stroke="#547980" stroke-width="21.3846"/>
<line x1="667.436" y1="815.31" x2="220.321" y2="815.31" stroke="#547980" stroke-width="21.3846"/>
</g>
<mask id="mask4_1_329" style="mask-type:alpha" maskUnits="userSpaceOnUse" x="296" y="980" width="300" height="300">
<rect x="595.231" y="980.769" width="298.462" height="298.462" transform="rotate(90 595.231 980.769)" fill="#C4C4C4" stroke="#547980" stroke-width="1.53846"/>
</mask>
<g mask="url(#mask4_1_329)">
<rect x="446.12" y="1456.42" width="329.077" height="329.077" transform="rotate(-135 446.12 1456.42)" stroke="#547980" stroke-width="21.3846"/>
<rect x="446.12" y="1456.42" width="286.308" height="286.308" transform="rotate(-135 446.12 1456.42)" stroke="#547980" stroke-width="21.3846"/>
<rect x="446.12" y="1456.42" width="243.538" height="243.538" transform="rotate(-135 446.12 1456.42)" stroke="#547980" stroke-width="21.3846"/>
<rect x="446.12" y="1456.42" width="200.769" height="200.769" transform="rotate(-135 446.12 1456.42)" stroke="#547980" stroke-width="21.3846"/>
<rect x="446.12" y="1456.42" width="158" height="158" transform="rotate(-135 446.12 1456.42)" stroke="#547980" stroke-width="21.3846"/>
<rect x="666.87" y="697.795" width="427.12" height="446.035" transform="rotate(90 666.87 697.795)" fill="#45ADA8" stroke="#547980" stroke-width="1.0288"/>
<line x1="667.436" y1="989.225" x2="220.321" y2="989.224" stroke="#547980" stroke-width="21.3846"/>
<line x1="667.436" y1="1032.23" x2="220.321" y2="1032.23" stroke="#547980" stroke-width="21.3846"/>
<line x1="667.436" y1="1073.77" x2="220.321" y2="1073.77" stroke="#547980" stroke-width="21.3846"/>
<line x1="667.436" y1="1115.31" x2="220.321" y2="1115.31" stroke="#547980" stroke-width="21.3846"/>
</g>
<mask id="mask5_1_329" style="mask-type:alpha" maskUnits="userSpaceOnUse" x="296" y="1280" width="300" height="300">
<rect x="595.231" y="1280.77" width="298.462" height="298.462" transform="rotate(90 595.231 1280.77)" fill="#C4C4C4" stroke="#547980" stroke-width="1.53846"/>
</mask>
<g mask="url(#mask5_1_329)">
<rect x="446.12" y="1756.42" width="329.077" height="329.077" transform="rotate(-135 446.12 1756.42)" stroke="#547980" stroke-width="21.3846"/>
<rect x="446.12" y="1756.42" width="286.308" height="286.308" transform="rotate(-135 446.12 1756.42)" stroke="#547980" stroke-width="21.3846"/>
<rect x="446.12" y="1756.42" width="243.538" height="243.538" transform="rotate(-135 446.12 1756.42)" stroke="#547980" stroke-width="21.3846"/>
<rect x="666.87" y="997.795" width="427.12" height="446.035" transform="rotate(90 666.87 997.795)" fill="#45ADA8" stroke="#547980" stroke-width="1.0288"/>
<line x1="667.436" y1="1289.22" x2="220.321" y2="1289.22" stroke="#547980" stroke-width="21.3846"/>
<line x1="667.436" y1="1332.23" x2="220.321" y2="1332.23" stroke="#547980" stroke-width="21.3846"/>
<line x1="667.436" y1="1373.77" x2="220.321" y2="1373.77" stroke="#547980" stroke-width="21.3846"/>
<line x1="667.436" y1="1415.31" x2="220.321" y2="1415.31" stroke="#547980" stroke-width="21.3846"/>
</g>
</g>
<g style="mix-blend-mode:darken" opacity="0.2">
<mask id="mask6_1_329" style="mask-type:alpha" maskUnits="userSpaceOnUse" x="-4" y="-60" width="300" height="300">
<rect x="295.231" y="-59.2308" width="298.462" height="298.462" transform="rotate(90 295.231 -59.2308)" fill="#C4C4C4" stroke="#547980" stroke-width="1.53846"/>
</mask>
<g mask="url(#mask6_1_329)">
<rect x="146.12" y="416.417" width="329.077" height="329.077" transform="rotate(-135 146.12 416.417)" stroke="#547980" stroke-width="21.3846"/>
<rect x="146.12" y="416.417" width="286.308" height="286.308" transform="rotate(-135 146.12 416.417)" stroke="#547980" stroke-width="21.3846"/>
<rect x="146.12" y="416.417" width="243.538" height="243.538" transform="rotate(-135 146.12 416.417)" stroke="#547980" stroke-width="21.3846"/>
<rect x="146.12" y="416.417" width="200.769" height="200.769" transform="rotate(-135 146.12 416.417)" stroke="#547980" stroke-width="21.3846"/>
<rect x="146.12" y="416.417" width="158" height="158" transform="rotate(-135 146.12 416.417)" stroke="#547980" stroke-width="21.3846"/>
<rect x="366.87" y="-342.205" width="427.12" height="446.035" transform="rotate(90 366.87 -342.205)" fill="#45ADA8" stroke="#547980" stroke-width="1.0288"/>
<line x1="367.436" y1="-7.76765" x2="-79.6794" y2="-7.76771" stroke="#547980" stroke-width="21.3846"/>
<line x1="367.436" y1="33.7704" x2="-79.6794" y2="33.7704" stroke="#547980" stroke-width="21.3846"/>
<line x1="367.436" y1="75.3097" x2="-79.6794" y2="75.3097" stroke="#547980" stroke-width="21.3846"/>
</g>
<mask id="mask7_1_329" style="mask-type:alpha" maskUnits="userSpaceOnUse" x="-4" y="240" width="300" height="300">
<rect x="295.231" y="240.769" width="298.462" height="298.462" transform="rotate(90 295.231 240.769)" fill="#C4C4C4" stroke="#547980" stroke-width="1.53846"/>
</mask>
<g mask="url(#mask7_1_329)">
<rect x="146.12" y="716.417" width="329.077" height="329.077" transform="rotate(-135 146.12 716.417)" stroke="#547980" stroke-width="21.3846"/>
<rect x="146.12" y="716.417" width="286.308" height="286.308" transform="rotate(-135 146.12 716.417)" stroke="#547980" stroke-width="21.3846"/>
<rect x="146.12" y="716.417" width="243.538" height="243.538" transform="rotate(-135 146.12 716.417)" stroke="#547980" stroke-width="21.3846"/>
<rect x="146.12" y="716.417" width="200.769" height="200.769" transform="rotate(-135 146.12 716.417)" stroke="#547980" stroke-width="21.3846"/>
<rect x="146.12" y="716.417" width="158" height="158" transform="rotate(-135 146.12 716.417)" stroke="#547980" stroke-width="21.3846"/>
<rect x="366.87" y="-42.2053" width="427.12" height="446.035" transform="rotate(90 366.87 -42.2053)" fill="#45ADA8" stroke="#547980" stroke-width="1.0288"/>
<line x1="367.436" y1="249.225" x2="-79.6794" y2="249.224" stroke="#547980" stroke-width="21.3846"/>
<line x1="367.436" y1="292.232" x2="-79.6794" y2="292.232" stroke="#547980" stroke-width="21.3846"/>
<line x1="367.436" y1="333.77" x2="-79.6795" y2="333.77" stroke="#547980" stroke-width="21.3846"/>
<line x1="367.436" y1="375.31" x2="-79.6795" y2="375.31" stroke="#547980" stroke-width="21.3846"/>
</g>
<mask id="mask8_1_329" style="mask-type:alpha" maskUnits="userSpaceOnUse" x="-4" y="540" width="300" height="300">
<rect x="295.231" y="540.769" width="298.462" height="298.462" transform="rotate(90 295.231 540.769)" fill="#C4C4C4" stroke="#547980" stroke-width="1.53846"/>
</mask>
<g mask="url(#mask8_1_329)">
<rect x="146.12" y="1016.42" width="329.077" height="329.077" transform="rotate(-135 146.12 1016.42)" stroke="#547980" stroke-width="21.3846"/>
<rect x="146.12" y="1016.42" width="286.308" height="286.308" transform="rotate(-135 146.12 1016.42)" stroke="#547980" stroke-width="21.3846"/>
<rect x="146.12" y="1016.42" width="243.538" height="243.538" transform="rotate(-135 146.12 1016.42)" stroke="#547980" stroke-width="21.3846"/>
<rect x="146.12" y="1016.42" width="200.769" height="200.769" transform="rotate(-135 146.12 1016.42)" stroke="#547980" stroke-width="21.3846"/>
<rect x="146.12" y="1016.42" width="158" height="158" transform="rotate(-135 146.12 1016.42)" stroke="#547980" stroke-width="21.3846"/>
<rect x="366.87" y="257.795" width="427.12" height="446.035" transform="rotate(90 366.87 257.795)" fill="#45ADA8" stroke="#547980" stroke-width="1.0288"/>
<line x1="367.436" y1="549.225" x2="-79.6794" y2="549.224" stroke="#547980" stroke-width="21.3846"/>
<line x1="367.436" y1="592.232" x2="-79.6794" y2="592.232" stroke="#547980" stroke-width="21.3846"/>
<line x1="367.436" y1="633.77" x2="-79.6795" y2="633.77" stroke="#547980" stroke-width="21.3846"/>
<line x1="367.436" y1="675.31" x2="-79.6795" y2="675.31" stroke="#547980" stroke-width="21.3846"/>
</g>
<mask id="mask9_1_329" style="mask-type:alpha" maskUnits="userSpaceOnUse" x="-4" y="840" width="300" height="300">
<rect x="295.231" y="840.769" width="298.462" height="298.462" transform="rotate(90 295.231 840.769)" fill="#C4C4C4" stroke="#547980" stroke-width="1.53846"/>
</mask>
<g mask="url(#mask9_1_329)">
<rect x="146.12" y="1316.42" width="329.077" height="329.077" transform="rotate(-135 146.12 1316.42)" stroke="#547980" stroke-width="21.3846"/>
<rect x="146.12" y="1316.42" width="286.308" height="286.308" transform="rotate(-135 146.12 1316.42)" stroke="#547980" stroke-width="21.3846"/>
<rect x="146.12" y="1316.42" width="243.538" height="243.538" transform="rotate(-135 146.12 1316.42)" stroke="#547980" stroke-width="21.3846"/>
<rect x="146.12" y="1316.42" width="200.769" height="200.769" transform="rotate(-135 146.12 1316.42)" stroke="#547980" stroke-width="21.3846"/>
<rect x="146.12" y="1316.42" width="158" height="158" transform="rotate(-135 146.12 1316.42)" stroke="#547980" stroke-width="21.3846"/>
<rect x="366.87" y="557.795" width="427.12" height="446.035" transform="rotate(90 366.87 557.795)" fill="#45ADA8" stroke="#547980" stroke-width="1.0288"/>
<line x1="367.436" y1="849.225" x2="-79.6795" y2="849.224" stroke="#547980" stroke-width="21.3846"/>
<line x1="367.436" y1="892.232" x2="-79.6795" y2="892.232" stroke="#547980" stroke-width="21.3846"/>
<line x1="367.436" y1="933.77" x2="-79.6795" y2="933.77" stroke="#547980" stroke-width="21.3846"/>
<line x1="367.436" y1="975.31" x2="-79.6795" y2="975.31" stroke="#547980" stroke-width="21.3846"/>
</g>
<mask id="mask10_1_329" style="mask-type:alpha" maskUnits="userSpaceOnUse" x="-4" y="1140" width="300" height="300">
<rect x="295.231" y="1140.77" width="298.462" height="298.462" transform="rotate(90 295.231 1140.77)" fill="#C4C4C4" stroke="#547980" stroke-width="1.53846"/>
</mask>
<g mask="url(#mask10_1_329)">
<rect x="146.12" y="1616.42" width="329.077" height="329.077" transform="rotate(-135 146.12 1616.42)" stroke="#547980" stroke-width="21.3846"/>
<rect x="146.12" y="1616.42" width="286.308" height="286.308" transform="rotate(-135 146.12 1616.42)" stroke="#547980" stroke-width="21.3846"/>
<rect x="146.12" y="1616.42" width="243.538" height="243.538" transform="rotate(-135 146.12 1616.42)" stroke="#547980" stroke-width="21.3846"/>
<rect x="146.12" y="1616.42" width="200.769" height="200.769" transform="rotate(-135 146.12 1616.42)" stroke="#547980" stroke-width="21.3846"/>
<rect x="146.12" y="1616.42" width="158" height="158" transform="rotate(-135 146.12 1616.42)" stroke="#547980" stroke-width="21.3846"/>
<rect x="366.87" y="857.795" width="427.12" height="446.035" transform="rotate(90 366.87 857.795)" fill="#45ADA8" stroke="#547980" stroke-width="1.0288"/>
<line x1="367.436" y1="1149.22" x2="-79.6795" y2="1149.22" stroke="#547980" stroke-width="21.3846"/>
<line x1="367.436" y1="1192.23" x2="-79.6795" y2="1192.23" stroke="#547980" stroke-width="21.3846"/>
<line x1="367.436" y1="1233.77" x2="-79.6795" y2="1233.77" stroke="#547980" stroke-width="21.3846"/>
<line x1="367.436" y1="1275.31" x2="-79.6795" y2="1275.31" stroke="#547980" stroke-width="21.3846"/>
</g>
</g>
</g>
<defs>
<linearGradient id="paint0_linear_1_329" x1="615.875" y1="-12.2222" x2="1738.52" y2="938.45" gradientUnits="userSpaceOnUse">
<stop stop-color="#45ADA8"/>
<stop offset="1" stop-color="#547980"/>
</linearGradient>
<clipPath id="clip0_1_329">
<rect width="1440" height="596" fill="white" transform="translate(596) rotate(90)"/>
</clipPath>
</defs>
</svg>
